<svg width="35" height="35" viewBox="0 0 35 35" fill="none" xmlns="http://www.w3.org/2000/svg">
<path d="M18.5022 0.892145C21.7729 -1.10243 26.0514 0.385849 27.3773 3.97938C27.9959 5.65575 29.3205 6.97537 30.9995 7.58784C34.5986 8.90076 36.1023 13.1729 34.1187 16.4498C33.1934 17.9785 32.9873 19.8366 33.5551 21.5308C34.7724 25.1625 32.369 29.0015 28.5696 29.4942C26.7972 29.7241 25.2156 30.7215 24.2447 32.2217C22.1635 35.4375 17.6628 35.9525 14.9086 33.2899C13.6238 32.0479 11.8577 31.4335 10.0791 31.61C6.26666 31.9883 3.05778 28.7915 3.42275 24.9787C3.593 23.2 2.97227 21.4365 1.72539 20.1564C-0.947489 17.4123 -0.448202 12.911 2.76109 10.819C4.25821 9.84314 5.25033 8.25843 5.47399 6.48569C5.95345 2.68558 9.78493 0.269308 13.4219 1.47346C15.1185 2.0352 16.9764 1.82261 18.5022 0.892145Z" fill="#FFF087"/>
<path d="M14 15L18 19L22 15" stroke="#1A2E1F" stroke-width="1.33333" stroke-linecap="round" stroke-linejoin="round"/>
</svg>
